<svg width="18" height="18" viewBox="0 0 18 18" fill="none" xmlns="http://www.w3.org/2000/svg">
<path fill-rule="evenodd" clip-rule="evenodd" d="M3.94294 0.674017C7.1087 0.323505 10.3035 0.323505 13.4692 0.674017C15.222 0.870478 16.6362 2.25082 16.8418 4.00976C17.217 7.22066 17.217 10.4643 16.8418 13.6752C16.6362 15.4342 15.222 16.8145 13.4692 17.011C10.3035 17.3615 7.1087 17.3615 3.94294 17.011C2.19014 16.8145 0.776029 15.4342 0.570359 13.6752C0.195297 10.4647 0.195297 7.22135 0.570359 4.01078C0.674388 3.15625 1.06395 2.36189 1.67589 1.75644C2.28784 1.15099 3.08632 0.769939 3.94191 0.67504M8.70609 3.73349C8.90962 3.73349 9.10482 3.81434 9.24874 3.95826C9.39266 4.10218 9.47352 4.29738 9.47352 4.50091V8.07507H13.0477C13.2512 8.07507 13.4464 8.15592 13.5903 8.29984C13.7342 8.44376 13.8151 8.63896 13.8151 8.84249C13.8151 9.04603 13.7342 9.24122 13.5903 9.38514C13.4464 9.52906 13.2512 9.60992 13.0477 9.60992H9.47352V13.1841C9.47352 13.3876 9.39266 13.5828 9.24874 13.7267C9.10482 13.8706 8.90962 13.9515 8.70609 13.9515C8.50256 13.9515 8.30736 13.8706 8.16344 13.7267C8.01952 13.5828 7.93867 13.3876 7.93867 13.1841V9.60992H4.36451C4.16098 9.60992 3.96578 9.52906 3.82186 9.38514C3.67794 9.24122 3.59708 9.04603 3.59708 8.84249C3.59708 8.63896 3.67794 8.44376 3.82186 8.29984C3.96578 8.15592 4.16098 8.07507 4.36451 8.07507H7.93867V4.50091C7.93867 4.29738 8.01952 4.10218 8.16344 3.95826C8.30736 3.81434 8.50256 3.73349 8.70609 3.73349Z" fill="#063154"/>
</svg>
