<svg width="17" height="22" viewBox="0 0 17 22" fill="none" xmlns="http://www.w3.org/2000/svg">
<path d="M2.50155 21.2856C1.93877 21.2856 1.45716 21.0854 1.05674 20.685C0.656314 20.2845 0.45576 19.8026 0.455078 19.2391V2.86739C0.455078 2.30461 0.655632 1.82301 1.05674 1.42258C1.45785 1.02216 1.93945 0.821605 2.50155 0.820923H14.7803C15.3431 0.820923 15.8251 1.02148 16.2262 1.42258C16.6273 1.82369 16.8275 2.30529 16.8268 2.86739V19.2391C16.8268 19.8019 16.6266 20.2838 16.2262 20.685C15.8258 21.0861 15.3438 21.2863 14.7803 21.2856H2.50155ZM2.50155 19.2391H14.7803V2.86739H12.7339V10.03L10.1758 8.49518L7.61771 10.03V2.86739H2.50155V19.2391Z" fill="#063154"/>
</svg>
