<svg width="23" height="19" viewBox="0 0 23 19" fill="none" xmlns="http://www.w3.org/2000/svg">
<path d="M11.6423 9.8424C13.5588 9.8424 15.2952 10.4768 16.5692 11.364C17.7796 12.2081 18.8049 13.4626 18.8049 14.8123C18.8049 15.5531 18.4887 16.167 17.9904 16.6234C17.5218 17.0542 16.9099 17.3335 16.2796 17.5238C15.02 17.9055 13.3613 18.0283 11.6423 18.0283C9.92326 18.0283 8.26459 17.9055 7.00499 17.5238C6.37468 17.3335 5.76279 17.0542 5.29312 16.6234C4.79686 16.168 4.47965 15.5541 4.47965 14.8133C4.47965 13.4636 5.50493 12.2091 6.71542 11.365C7.98934 10.4768 9.72577 9.8424 11.6423 9.8424ZM18.8049 10.8656C19.8732 10.8656 20.8432 11.2187 21.5605 11.718C22.2154 12.1754 22.8979 12.9356 22.8979 13.8627C22.8979 14.3917 22.6676 14.8307 22.3248 15.1448C22.0117 15.4323 21.625 15.6012 21.2719 15.7076C20.791 15.8529 20.2231 15.9276 19.6337 15.9603C19.7586 15.6073 19.8282 15.2236 19.8282 14.8123C19.8282 13.2416 18.8469 11.9073 17.7489 10.9813C18.0957 10.9047 18.4498 10.8659 18.8049 10.8656ZM4.47965 10.8656C4.84597 10.867 5.19796 10.9055 5.53563 10.9813C4.43872 11.9073 3.45642 13.2416 3.45642 14.8123C3.45642 15.2236 3.526 15.6073 3.65083 15.9603C3.06145 15.9276 2.49458 15.8529 2.01264 15.7076C1.65962 15.6012 1.27284 15.4323 0.958706 15.1448C0.778645 14.9835 0.634632 14.786 0.536071 14.5653C0.43751 14.3445 0.386619 14.1055 0.386719 13.8637C0.386719 12.9377 1.06819 12.1764 1.72409 11.719C2.53537 11.1628 3.49603 10.8653 4.47965 10.8656ZM18.2933 4.72624C18.9718 4.72624 19.6224 4.99575 20.1021 5.47548C20.5819 5.95522 20.8514 6.60587 20.8514 7.28432C20.8514 7.96277 20.5819 8.61343 20.1021 9.09316C19.6224 9.57289 18.9718 9.8424 18.2933 9.8424C17.6149 9.8424 16.9642 9.57289 16.4845 9.09316C16.0047 8.61343 15.7352 7.96277 15.7352 7.28432C15.7352 6.60587 16.0047 5.95522 16.4845 5.47548C16.9642 4.99575 17.6149 4.72624 18.2933 4.72624ZM4.99127 4.72624C5.66972 4.72624 6.32037 4.99575 6.80011 5.47548C7.27984 5.95522 7.54935 6.60587 7.54935 7.28432C7.54935 7.96277 7.27984 8.61343 6.80011 9.09316C6.32037 9.57289 5.66972 9.8424 4.99127 9.8424C4.31282 9.8424 3.66217 9.57289 3.18243 9.09316C2.7027 8.61343 2.43319 7.96277 2.43319 7.28432C2.43319 6.60587 2.7027 5.95522 3.18243 5.47548C3.66217 4.99575 4.31282 4.72624 4.99127 4.72624ZM11.6423 0.633301C12.7278 0.633301 13.7689 1.06452 14.5364 1.83209C15.304 2.59967 15.7352 3.64072 15.7352 4.72624C15.7352 5.81175 15.304 6.8528 14.5364 7.62038C13.7689 8.38795 12.7278 8.81917 11.6423 8.81917C10.5568 8.81917 9.51572 8.38795 8.74815 7.62038C7.98057 6.8528 7.54935 5.81175 7.54935 4.72624C7.54935 3.64072 7.98057 2.59967 8.74815 1.83209C9.51572 1.06452 10.5568 0.633301 11.6423 0.633301Z" fill="#063154"/>
</svg>
