<svg width="19" height="20" viewBox="0 0 19 20" fill="none" xmlns="http://www.w3.org/2000/svg">
<path d="M9.67395 19.2626C7.32051 19.2626 5.26995 18.4825 3.52227 16.9224C1.77458 15.3623 0.772496 13.4138 0.516005 11.0767H2.61363C2.85239 12.8503 3.6413 14.3169 4.98037 15.4766C6.31945 16.6363 7.88397 17.2161 9.67395 17.2161C11.6693 17.2161 13.362 16.5213 14.7523 15.1318C16.1425 13.7422 16.8373 12.0495 16.8366 10.0535C16.8359 8.05748 16.1411 6.36505 14.7523 4.97618C13.3634 3.58731 11.6706 2.89219 9.67395 2.89083C8.49723 2.89083 7.39725 3.16369 6.37402 3.70942C5.35078 4.25514 4.48956 5.00551 3.79035 5.96053H6.60425V8.007H0.464844V1.86759H2.51131V4.27219C3.38106 3.18074 4.44284 2.33658 5.69664 1.73969C6.95044 1.1428 8.27621 0.84436 9.67395 0.84436C10.953 0.84436 12.1512 1.08755 13.2686 1.57393C14.3859 2.0603 15.358 2.71654 16.1848 3.54263C17.0116 4.36872 17.6681 5.34079 18.1545 6.45884C18.6409 7.5769 18.8837 8.7751 18.883 10.0535C18.8824 11.3318 18.6395 12.53 18.1545 13.6481C17.6695 14.7661 17.0129 15.7382 16.1848 16.5643C15.3566 17.3904 14.3846 18.047 13.2686 18.534C12.1526 19.0211 10.9544 19.2639 9.67395 19.2626ZM12.539 14.351L8.65071 10.4628V4.9373H10.6972V9.64417L13.9715 12.9185L12.539 14.351Z" fill="#063154"/>
</svg>
