<svg width="26" height="25" viewBox="0 0 26 25" fill="none" xmlns="http://www.w3.org/2000/svg">
<path fill-rule="evenodd" clip-rule="evenodd" d="M10.6265 3.76162C11.0558 3.33263 11.6027 3.04051 12.1979 2.92219C12.7932 2.80388 13.4102 2.86466 13.9709 3.09688C14.5316 3.32909 15.0109 3.7223 15.3483 4.22683C15.6856 4.73136 15.8658 5.32456 15.8661 5.93146H9.72668C9.72668 5.11755 10.0494 4.33522 10.6265 3.76162ZM7.09551 5.93146C7.09551 4.4195 7.69613 2.96946 8.76526 1.90034C9.83438 0.831217 11.2844 0.230591 12.7964 0.230591C14.3083 0.230591 15.7584 0.831217 16.8275 1.90034C17.8966 2.96946 18.4973 4.4195 18.4973 5.93146H20.6899C21.8529 5.93146 22.9684 6.39348 23.7908 7.21589C24.6132 8.03829 25.0752 9.1537 25.0752 10.3168V19.9644C25.0752 21.1274 24.6132 22.2428 23.7908 23.0652C22.9684 23.8876 21.8529 24.3497 20.6899 24.3497H4.90287C3.73981 24.3497 2.6244 23.8876 1.802 23.0652C0.979598 22.2428 0.517578 21.1274 0.517578 19.9644L0.517578 10.3168C0.517578 9.1537 0.979598 8.03829 1.802 7.21589C2.6244 6.39348 3.73981 5.93146 4.90287 5.93146H7.09551ZM12.2088 11.3113C12.4184 11.2242 12.6449 11.1847 12.8717 11.1956C13.0985 11.2065 13.3201 11.2677 13.5204 11.3746C13.7208 11.4815 13.8949 11.6315 14.0302 11.8139C14.1656 11.9962 14.2588 12.2063 14.3031 12.429C14.3474 12.6517 14.3418 12.8815 14.2866 13.1018C14.2314 13.3221 14.128 13.5273 13.9839 13.7028C13.8397 13.8783 13.6585 14.0196 13.4531 14.1166C13.2478 14.2135 13.0235 14.2637 12.7964 14.2635C12.5056 14.2635 12.2268 14.379 12.0212 14.5846C11.8156 14.7902 11.7001 15.0691 11.7001 15.3598V17.1139C11.7001 17.4047 11.8156 17.6836 12.0212 17.8892C12.2268 18.0948 12.5056 18.2103 12.7964 18.2103C13.0871 18.2103 13.366 18.0948 13.5716 17.8892C13.7772 17.6836 13.8927 17.4047 13.8927 17.1139V16.2913C14.5521 16.0884 15.1422 15.7064 15.5974 15.188C16.0526 14.6695 16.355 14.035 16.4709 13.3549C16.5868 12.6748 16.5117 11.9758 16.2539 11.3359C15.9961 10.6959 15.5658 10.1401 15.0108 9.73024C14.4559 9.32038 13.7981 9.07257 13.1106 9.01442C12.4231 8.95626 11.733 9.09003 11.1171 9.40084C10.5012 9.71165 9.9836 10.1873 9.62197 10.7748C9.26035 11.3624 9.06888 12.0388 9.06889 12.7287C9.06889 13.0194 9.18439 13.2983 9.38999 13.5039C9.59559 13.7095 9.87445 13.825 10.1652 13.825C10.456 13.825 10.7348 13.7095 10.9404 13.5039C11.146 13.2983 11.2615 13.0194 11.2615 12.7287C11.2616 12.4252 11.3517 12.1287 11.5203 11.8764C11.6889 11.6241 11.9285 11.4275 12.2088 11.3113ZM12.7999 22.3763C12.6271 22.3763 12.4561 22.3423 12.2964 22.2761C12.1368 22.21 11.9918 22.1131 11.8696 21.991C11.7475 21.8688 11.6506 21.7238 11.5844 21.5642C11.5183 21.4045 11.4843 21.2335 11.4843 21.0607C11.4843 20.8879 11.5183 20.7169 11.5844 20.5573C11.6506 20.3976 11.7475 20.2526 11.8696 20.1304C11.9918 20.0083 12.1368 19.9114 12.2964 19.8453C12.4561 19.7791 12.6271 19.7451 12.7999 19.7451C13.1488 19.7451 13.4834 19.8837 13.7302 20.1304C13.9769 20.3772 14.1155 20.7118 14.1155 21.0607C14.1155 21.4096 13.9769 21.7442 13.7302 21.991C13.4834 22.2377 13.1488 22.3763 12.7999 22.3763Z" fill="#063154"/>
</svg>
