<svg width="21" height="14" viewBox="0 0 21 14" fill="none" xmlns="http://www.w3.org/2000/svg">
<path d="M1.46464 14.005C1.17473 14.005 0.93188 13.9068 0.736101 13.7104C0.540322 13.5139 0.442092 13.271 0.44141 12.9818C0.440728 12.6926 0.538958 12.4497 0.736101 12.2533C0.933244 12.0568 1.17609 11.9586 1.46464 11.9586H9.65051C9.94043 11.9586 10.1836 12.0568 10.3801 12.2533C10.5765 12.4497 10.6744 12.6926 10.6737 12.9818C10.6731 13.271 10.5748 13.5142 10.3791 13.7114C10.1833 13.9085 9.94043 14.0064 9.65051 14.005H1.46464ZM1.46464 8.88887C1.17473 8.88887 0.93188 8.79064 0.736101 8.59418C0.540322 8.39772 0.442092 8.15487 0.44141 7.86564C0.440728 7.57641 0.538958 7.33356 0.736101 7.1371C0.933244 6.94064 1.17609 6.84241 1.46464 6.84241H4.53434C4.82426 6.84241 5.06745 6.94064 5.26391 7.1371C5.46037 7.33356 5.55826 7.57641 5.55758 7.86564C5.5569 8.15487 5.45867 8.39806 5.26289 8.59521C5.06711 8.79235 4.82426 8.89024 4.53434 8.88887H1.46464ZM1.46464 3.7727C1.17473 3.7727 0.93188 3.67447 0.736101 3.47801C0.540322 3.28155 0.442092 3.0387 0.44141 2.74947C0.440728 2.46024 0.538958 2.21739 0.736101 2.02093C0.933244 1.82447 1.17609 1.72624 1.46464 1.72624H4.53434C4.82426 1.72624 5.06745 1.82447 5.26391 2.02093C5.46037 2.21739 5.55826 2.46024 5.55758 2.74947C5.5569 3.0387 5.45867 3.28189 5.26289 3.47904C5.06711 3.67618 4.82426 3.77407 4.53434 3.7727H1.46464ZM12.7202 10.9353C11.3047 10.9353 10.0983 10.4363 9.10104 9.43835C8.10372 8.44036 7.60473 7.23396 7.60405 5.81917C7.60336 4.40438 8.10236 3.19799 9.10104 2.19999C10.0997 1.202 11.3061 0.703003 12.7202 0.703003C14.1343 0.703003 15.3411 1.202 16.3404 2.19999C17.3398 3.19799 17.8384 4.40438 17.8364 5.81917C17.8364 6.31373 17.7637 6.8042 17.6184 7.29058C17.4731 7.77696 17.2559 8.22445 16.9666 8.63306L20.1898 11.8563C20.3774 12.0438 20.4712 12.2826 20.4712 12.5725C20.4712 12.8624 20.3774 13.1012 20.1898 13.2888C20.0022 13.4764 19.7635 13.5702 19.4736 13.5702C19.1836 13.5702 18.9449 13.4764 18.7573 13.2888L15.5341 10.0656C15.1248 10.3555 14.6773 10.5731 14.1916 10.7184C13.7059 10.8637 13.2155 10.936 12.7202 10.9353ZM12.7202 8.88887C13.5729 8.88887 14.2977 8.59043 14.8946 7.99354C15.4915 7.39666 15.7899 6.67187 15.7899 5.81917C15.7899 4.96648 15.4915 4.24169 14.8946 3.6448C14.2977 3.04791 13.5729 2.74947 12.7202 2.74947C11.8675 2.74947 11.1427 3.04791 10.5458 3.6448C9.94896 4.24169 9.65051 4.96648 9.65051 5.81917C9.65051 6.67187 9.94896 7.39666 10.5458 7.99354C11.1427 8.59043 11.8675 8.88887 12.7202 8.88887Z" fill="#063154"/>
</svg>
