<svg width="27" height="28" viewBox="0 0 27 28" fill="none" xmlns="http://www.w3.org/2000/svg">
<path d="M15.9813 18.1597V20.8857C15.9813 21.2472 15.8377 21.5939 15.5821 21.8495C15.3264 22.1051 14.9798 22.2487 14.6183 22.2487H5.07728L0.988281 26.3377V12.7077C0.988281 12.3462 1.13188 11.9995 1.38749 11.7439C1.64311 11.4883 1.98979 11.3447 2.35128 11.3447H5.07728M25.5223 16.7967L21.4333 12.7077H11.8923C11.5308 12.7077 11.1841 12.5641 10.9285 12.3085C10.6729 12.0529 10.5293 11.7062 10.5293 11.3447V3.16671C10.5293 2.80522 10.6729 2.45854 10.9285 2.20292C11.1841 1.94731 11.5308 1.80371 11.8923 1.80371H24.1593C24.5208 1.80371 24.8674 1.94731 25.1231 2.20292C25.3787 2.45854 25.5223 2.80522 25.5223 3.16671V16.7967Z" stroke="#063154" stroke-width="1.75411" stroke-linecap="round" stroke-linejoin="round"/>
</svg>
