<svg width="17" height="26" viewBox="0 0 17 26" fill="none" xmlns="http://www.w3.org/2000/svg">
<path d="M2.33292 5.42747L0.900391 3.99494C1.90657 2.9376 3.08772 2.11901 4.44385 1.53918C5.79997 0.95935 7.26218 0.669434 8.83045 0.669434C10.3987 0.669434 11.8613 0.95935 13.2181 1.53918C14.5749 2.11901 15.7557 2.9376 16.7605 3.99494L15.328 5.42747C14.5094 4.57478 13.5414 3.90967 12.424 3.43216C11.3067 2.95466 10.1088 2.7159 8.83045 2.7159C7.55209 2.7159 6.35423 2.95466 5.23686 3.43216C4.11948 3.90967 3.1515 4.57478 2.33292 5.42747ZM5.19797 8.29252L3.76545 6.86C4.41349 6.21195 5.1683 5.70033 6.02986 5.32515C6.89142 4.94996 7.82495 4.76237 8.83045 4.76237C9.83595 4.76237 10.7698 4.94996 11.6321 5.32515C12.4943 5.70033 13.2488 6.21195 13.8955 6.86L12.4629 8.29252C12.0025 7.83207 11.4608 7.46984 10.838 7.20585C10.2152 6.94186 9.54603 6.80952 8.83045 6.80884C8.11487 6.80815 7.44533 6.94049 6.82184 7.20585C6.19835 7.47121 5.65706 7.83343 5.19797 8.29252ZM8.83045 25.227C7.85838 25.227 7.01865 24.8733 6.31125 24.1659C5.60386 23.4586 5.24982 22.6185 5.24913 21.6457V13.4087C5.24913 12.4366 5.60317 11.5969 6.31125 10.8895C7.01933 10.1821 7.85906 9.82806 8.83045 9.82737C9.80184 9.82669 10.6419 10.1807 11.3507 10.8895C12.0594 11.5983 12.4131 12.438 12.4118 13.4087V21.6457C12.4118 22.6178 12.0581 23.4579 11.3507 24.1659C10.6433 24.874 9.80321 25.2277 8.83045 25.227ZM8.83045 15.5063C9.39323 15.5063 9.87517 15.3061 10.2763 14.9057C10.6774 14.5053 10.8776 14.0233 10.8769 13.4599C10.8762 12.8964 10.676 12.4148 10.2763 12.015C9.87654 11.6153 9.3946 11.4148 8.83045 11.4134C8.26631 11.412 7.78471 11.6126 7.38565 12.015C6.98659 12.4175 6.78603 12.8991 6.78398 13.4599C6.78194 14.0206 6.98249 14.5025 7.38565 14.9057C7.7888 15.3088 8.2704 15.5091 8.83045 15.5063Z" fill="#063154"/>
</svg>
