<svg width="21" height="17" viewBox="0 0 21 17" fill="none" xmlns="http://www.w3.org/2000/svg">
<path d="M9.39074 11.5383H10.9256V9.49182H13.4837C13.7736 9.49182 14.0168 9.39359 14.2132 9.19713C14.4097 9.00067 14.5076 8.75782 14.5069 8.46859V6.42212C14.5069 6.1322 14.4087 5.88935 14.2122 5.69357C14.0158 5.4978 13.7729 5.39957 13.4837 5.39888H9.39074V11.5383ZM15.5301 11.5383H17.065V5.39888H15.5301V11.5383ZM10.9256 7.95697V6.93373H12.9721V7.95697H10.9256ZM4.27458 11.5383H7.34428C7.63419 11.5383 7.87738 11.4401 8.07384 11.2436C8.2703 11.0471 8.36819 10.8043 8.36751 10.5151V5.39888H6.83266V10.0034H4.78619V5.39888H3.25134V10.5151C3.25134 10.805 3.34957 11.0482 3.54603 11.2446C3.74249 11.4411 3.98534 11.539 4.27458 11.5383ZM2.22811 16.6545C1.66533 16.6545 1.18373 16.4542 0.783302 16.0538C0.382877 15.6534 0.182323 15.1714 0.181641 14.608V2.32918C0.181641 1.7664 0.382194 1.2848 0.783302 0.884376C1.18441 0.483951 1.66601 0.283397 2.22811 0.282715H18.5998C19.1626 0.282715 19.6446 0.483268 20.0457 0.884376C20.4468 1.28548 20.647 1.76709 20.6463 2.32918V14.608C20.6463 15.1708 20.4461 15.6527 20.0457 16.0538C19.6453 16.4549 19.1633 16.6551 18.5998 16.6545H2.22811Z" fill="#063154"/>
</svg>
