<svg width="14" height="14" viewBox="0 0 14 14" fill="none" xmlns="http://www.w3.org/2000/svg">
<path d="M11.6673 1.66671H10.334V1.00004C10.334 0.82323 10.2637 0.65366 10.1387 0.528636C10.0137 0.403612 9.84413 0.333374 9.66732 0.333374C9.49051 0.333374 9.32094 0.403612 9.19591 0.528636C9.07089 0.65366 9.00065 0.82323 9.00065 1.00004V1.66671H5.00065V1.00004C5.00065 0.82323 4.93041 0.65366 4.80539 0.528636C4.68036 0.403612 4.5108 0.333374 4.33398 0.333374C4.15717 0.333374 3.9876 0.403612 3.86258 0.528636C3.73756 0.65366 3.66732 0.82323 3.66732 1.00004V1.66671H2.33398C1.80355 1.66671 1.29484 1.87742 0.919771 2.25249C0.544698 2.62757 0.333984 3.13627 0.333984 3.66671V11.6667C0.333984 12.1971 0.544698 12.7058 0.919771 13.0809C1.29484 13.456 1.80355 13.6667 2.33398 13.6667H11.6673C12.1978 13.6667 12.7065 13.456 13.0815 13.0809C13.4566 12.7058 13.6673 12.1971 13.6673 11.6667V3.66671C13.6673 3.13627 13.4566 2.62757 13.0815 2.25249C12.7065 1.87742 12.1978 1.66671 11.6673 1.66671ZM12.334 11.6667C12.334 11.8435 12.2637 12.0131 12.1387 12.1381C12.0137 12.2631 11.8441 12.3334 11.6673 12.3334H2.33398C2.15717 12.3334 1.9876 12.2631 1.86258 12.1381C1.73756 12.0131 1.66732 11.8435 1.66732 11.6667V7.00004H12.334V11.6667ZM12.334 5.66671H1.66732V3.66671C1.66732 3.4899 1.73756 3.32033 1.86258 3.1953C1.9876 3.07028 2.15717 3.00004 2.33398 3.00004H3.66732V3.66671C3.66732 3.84352 3.73756 4.01309 3.86258 4.13811C3.9876 4.26314 4.15717 4.33337 4.33398 4.33337C4.5108 4.33337 4.68036 4.26314 4.80539 4.13811C4.93041 4.01309 5.00065 3.84352 5.00065 3.66671V3.00004H9.00065V3.66671C9.00065 3.84352 9.07089 4.01309 9.19591 4.13811C9.32094 4.26314 9.49051 4.33337 9.66732 4.33337C9.84413 4.33337 10.0137 4.26314 10.1387 4.13811C10.2637 4.01309 10.334 3.84352 10.334 3.66671V3.00004H11.6673C11.8441 3.00004 12.0137 3.07028 12.1387 3.1953C12.2637 3.32033 12.334 3.4899 12.334 3.66671V5.66671Z" fill="#063154"/>
</svg>
