<svg width="12" height="12" viewBox="0 0 12 12" fill="none" xmlns="http://www.w3.org/2000/svg">
<path d="M3.99935 1.33338C3.82254 1.33338 3.65297 1.40362 3.52794 1.52864C3.40292 1.65367 3.33268 1.82324 3.33268 2.00005C3.33268 2.17686 3.40292 2.34643 3.52794 2.47145C3.65297 2.59648 3.82254 2.66671 3.99935 2.66671C4.17616 2.66671 4.34573 2.59648 4.47075 2.47145C4.59578 2.34643 4.66602 2.17686 4.66602 2.00005C4.66602 1.82324 4.59578 1.65367 4.47075 1.52864C4.34573 1.40362 4.17616 1.33338 3.99935 1.33338ZM2.11268 1.33338C2.25042 0.943025 2.50584 0.605002 2.84375 0.365906C3.18166 0.12681 3.58541 -0.00158691 3.99935 -0.00158691C4.41329 -0.00158691 4.81704 0.12681 5.15495 0.365906C5.49286 0.605002 5.74828 0.943025 5.88602 1.33338H10.666C10.8428 1.33338 11.0124 1.40362 11.1374 1.52864C11.2624 1.65367 11.3327 1.82324 11.3327 2.00005C11.3327 2.17686 11.2624 2.34643 11.1374 2.47145C11.0124 2.59648 10.8428 2.66671 10.666 2.66671H5.88602C5.74828 3.05707 5.49286 3.39509 5.15495 3.63419C4.81704 3.87328 4.41329 4.00168 3.99935 4.00168C3.58541 4.00168 3.18166 3.87328 2.84375 3.63419C2.50584 3.39509 2.25042 3.05707 2.11268 2.66671H1.33268C1.15587 2.66671 0.986302 2.59648 0.861278 2.47145C0.736254 2.34643 0.666016 2.17686 0.666016 2.00005C0.666016 1.82324 0.736254 1.65367 0.861278 1.52864C0.986302 1.40362 1.15587 1.33338 1.33268 1.33338H2.11268ZM7.99935 5.33338C7.82254 5.33338 7.65297 5.40362 7.52794 5.52864C7.40292 5.65367 7.33268 5.82324 7.33268 6.00005C7.33268 6.17686 7.40292 6.34643 7.52794 6.47145C7.65297 6.59647 7.82254 6.66671 7.99935 6.66671C8.17616 6.66671 8.34573 6.59647 8.47075 6.47145C8.59578 6.34643 8.66602 6.17686 8.66602 6.00005C8.66602 5.82324 8.59578 5.65367 8.47075 5.52864C8.34573 5.40362 8.17616 5.33338 7.99935 5.33338ZM6.11268 5.33338C6.25042 4.94302 6.50584 4.605 6.84375 4.36591C7.18166 4.12681 7.58541 3.99841 7.99935 3.99841C8.41329 3.99841 8.81704 4.12681 9.15495 4.36591C9.49286 4.605 9.74828 4.94302 9.88601 5.33338H10.666C10.8428 5.33338 11.0124 5.40362 11.1374 5.52864C11.2624 5.65367 11.3327 5.82324 11.3327 6.00005C11.3327 6.17686 11.2624 6.34643 11.1374 6.47145C11.0124 6.59647 10.8428 6.66671 10.666 6.66671H9.88601C9.74828 7.05707 9.49286 7.39509 9.15495 7.63419C8.81704 7.87328 8.41329 8.00168 7.99935 8.00168C7.58541 8.00168 7.18166 7.87328 6.84375 7.63419C6.50584 7.39509 6.25042 7.05707 6.11268 6.66671H1.33268C1.15587 6.66671 0.986302 6.59647 0.861278 6.47145C0.736254 6.34643 0.666016 6.17686 0.666016 6.00005C0.666016 5.82324 0.736254 5.65367 0.861278 5.52864C0.986302 5.40362 1.15587 5.33338 1.33268 5.33338H6.11268ZM3.99935 9.33338C3.82254 9.33338 3.65297 9.40362 3.52794 9.52864C3.40292 9.65367 3.33268 9.82324 3.33268 10C3.33268 10.1769 3.40292 10.3464 3.52794 10.4715C3.65297 10.5965 3.82254 10.6667 3.99935 10.6667C4.17616 10.6667 4.34573 10.5965 4.47075 10.4715C4.59578 10.3464 4.66602 10.1769 4.66602 10C4.66602 9.82324 4.59578 9.65367 4.47075 9.52864C4.34573 9.40362 4.17616 9.33338 3.99935 9.33338ZM2.11268 9.33338C2.25042 8.94302 2.50584 8.605 2.84375 8.3659C3.18166 8.12681 3.58541 7.99841 3.99935 7.99841C4.41329 7.99841 4.81704 8.12681 5.15495 8.3659C5.49286 8.605 5.74828 8.94302 5.88602 9.33338H10.666C10.8428 9.33338 11.0124 9.40362 11.1374 9.52864C11.2624 9.65367 11.3327 9.82324 11.3327 10C11.3327 10.1769 11.2624 10.3464 11.1374 10.4715C11.0124 10.5965 10.8428 10.6667 10.666 10.6667H5.88602C5.74828 11.0571 5.49286 11.3951 5.15495 11.6342C4.81704 11.8733 4.41329 12.0017 3.99935 12.0017C3.58541 12.0017 3.18166 11.8733 2.84375 11.6342C2.50584 11.3951 2.25042 11.0571 2.11268 10.6667H1.33268C1.15587 10.6667 0.986302 10.5965 0.861278 10.4715C0.736254 10.3464 0.666016 10.1769 0.666016 10C0.666016 9.82324 0.736254 9.65367 0.861278 9.52864C0.986302 9.40362 1.15587 9.33338 1.33268 9.33338H2.11268Z" fill="#063154"/>
</svg>
