<svg width="14" height="16" viewBox="0 0 14 16" fill="none" xmlns="http://www.w3.org/2000/svg">
<path d="M7 8.66675C8.10457 8.66675 9 7.77132 9 6.66675C9 5.56218 8.10457 4.66675 7 4.66675C5.89543 4.66675 5 5.56218 5 6.66675C5 7.77132 5.89543 8.66675 7 8.66675Z" stroke="#063154" stroke-width="2" stroke-linecap="round" stroke-linejoin="round"/>
<path d="M6.99935 1.33337C5.58486 1.33337 4.22831 1.89528 3.22811 2.89547C2.22792 3.89567 1.66602 5.25222 1.66602 6.66671C1.66602 7.92804 1.93402 8.75337 2.66602 9.66671L6.99935 14.6667L11.3327 9.66671C12.0647 8.75337 12.3327 7.92804 12.3327 6.66671C12.3327 5.25222 11.7708 3.89567 10.7706 2.89547C9.77039 1.89528 8.41384 1.33337 6.99935 1.33337Z" stroke="#063154" stroke-width="2" stroke-linecap="round" stroke-linejoin="round"/>
</svg>
