<svg width="18" height="19" viewBox="0 0 18 19" fill="none" xmlns="http://www.w3.org/2000/svg">
<path d="M13.0504 2.60315C13.1342 2.91506 13.149 3.24151 13.0936 3.5597C13.0382 3.8779 12.9141 4.18018 12.7299 4.44547C12.5456 4.71075 12.3058 4.93264 12.0269 5.09565C11.7481 5.25867 11.4371 5.35889 11.1156 5.38932L10.6547 7.23198C11.4987 7.63711 12.1873 8.3597 12.5289 9.2917L13.5004 9.14324C13.599 8.6289 13.8762 8.16597 14.283 7.83624C14.6899 7.50652 15.2002 7.33124 15.7238 7.34137C16.2474 7.35151 16.7505 7.54642 17.1443 7.89164C17.5381 8.23687 17.7972 8.71019 17.8757 9.22795C17.9543 9.74572 17.8473 10.2746 17.5737 10.7211C17.3 11.1676 16.8773 11.503 16.3803 11.668C15.8833 11.833 15.344 11.817 14.8576 11.6228C14.3712 11.4286 13.9692 11.0687 13.7225 10.6068L12.7524 10.7549C12.7064 11.6712 12.3215 12.5377 11.6725 13.1863L12.388 14.2725C12.8962 14.1463 13.4327 14.2039 13.9027 14.435C14.3726 14.6661 14.7457 15.056 14.956 15.5355C15.1663 16.0151 15.2003 16.5536 15.052 17.0559C14.9037 17.5581 14.5826 17.9918 14.1455 18.2802C13.7084 18.5686 13.1834 18.6932 12.6633 18.632C12.1432 18.5707 11.6615 18.3276 11.3033 17.9456C10.9451 17.5636 10.7335 17.0672 10.7059 16.5442C10.6782 16.0213 10.8364 15.5054 11.1523 15.0878L10.4354 14.002C9.87026 14.2293 9.25772 14.3135 8.65218 14.2472C8.04663 14.1809 7.46682 13.9662 6.96421 13.622L5.59884 14.9424C5.65001 15.0534 5.69194 15.1698 5.72463 15.2918C5.85613 15.7822 5.81554 16.3029 5.60965 16.767C5.40376 17.2311 5.045 17.6106 4.59318 17.8423C4.14136 18.0739 3.62379 18.1437 3.12676 18.04C2.62973 17.9363 2.18328 17.6653 1.86183 17.2723C1.54039 16.8792 1.36338 16.3879 1.36031 15.8802C1.35725 15.3724 1.52831 14.879 1.84499 14.4821C2.16167 14.0852 2.60482 13.8089 3.10056 13.6992C3.59631 13.5894 4.11468 13.653 4.56926 13.8791L5.93463 12.5587C5.63844 12.0937 5.4499 11.5684 5.3828 11.0212C5.31571 10.4739 5.37175 9.91865 5.54682 9.39587L4.15508 8.59355C3.75704 8.9339 3.25149 9.12257 2.72779 9.12621C2.20409 9.12986 1.69596 8.94825 1.29322 8.61348C0.890476 8.27871 0.619048 7.81234 0.52691 7.29679C0.434772 6.78125 0.527857 6.24973 0.789712 5.79619C1.05157 5.34264 1.46533 4.99627 1.95787 4.81829C2.45042 4.64031 2.99002 4.64219 3.48131 4.82359C3.9726 5.005 4.38394 5.35424 4.64264 5.8096C4.90133 6.26496 4.99071 6.79711 4.89498 7.312L6.2853 8.1147C6.65001 7.70106 7.10289 7.37454 7.61058 7.15922C8.11826 6.94389 8.6678 6.84525 9.21868 6.87056L9.67953 5.0279C9.38001 4.82941 9.13315 4.56118 8.96014 4.24625C8.78713 3.93132 8.69315 3.57911 8.68627 3.21986C8.67938 2.86061 8.7598 2.50505 8.92062 2.18373C9.08143 1.8624 9.31784 1.58492 9.60953 1.3751C9.90123 1.16527 10.2395 1.02939 10.5953 0.979115C10.9511 0.928838 11.3137 0.965671 11.6521 1.08645C11.9906 1.20723 12.2946 1.40834 12.5381 1.67253C12.7817 1.93671 12.9575 2.25606 13.0504 2.60315Z" fill="#063154"/>
</svg>
