<svg width="21" height="19" viewBox="0 0 21 19" fill="none" xmlns="http://www.w3.org/2000/svg">
<path d="M10.4216 0.370169C10.848 0.366728 11.2743 0.363287 11.7136 0.359741C12.8666 0.537006 12.8666 0.537006 13.681 1.12615C14.4576 2.24119 14.2881 3.22148 14.2002 4.54111C14.4936 4.54111 14.787 4.54111 15.0893 4.54111C15.0893 9.23927 15.0893 13.9374 15.0893 18.7779C12.0086 18.7779 8.92795 18.7779 5.75391 18.7779C5.75391 14.0798 5.75391 9.38164 5.75391 4.54111C6.04731 4.54111 6.3407 4.54111 6.64299 4.54111C6.60174 3.92173 6.60174 3.92173 6.55964 3.28983C6.64299 1.87171 6.64299 1.87171 7.16221 1.12615C8.27755 0.319322 9.05676 0.359153 10.4216 0.370169Z" fill="#063154"/>
<path d="M16.8691 4.54108C19.0919 4.98598 19.0919 4.98598 19.9809 5.87578C20.1966 7.7023 20.1456 9.54361 20.1477 11.3814C20.1585 11.893 20.1694 12.4046 20.1806 12.9316C20.1824 13.4237 20.1841 13.9158 20.1859 14.4227C20.1895 14.8737 20.1932 15.3247 20.1969 15.7894C19.924 17.3172 19.4252 17.8495 18.2028 18.7779C17.7627 18.7779 17.3226 18.7779 16.8691 18.7779C16.8691 14.0798 16.8691 9.3816 16.8691 4.54108Z" fill="#063154"/>
<path d="M3.97578 4.54108C3.97578 9.23923 3.97578 13.9374 3.97578 18.7779C1.73954 18.2184 1.73954 18.2184 0.863973 16.9983C0.691408 15.8948 0.691408 15.8948 0.68685 14.5948C0.685131 14.1254 0.683412 13.656 0.681641 13.1723C0.689377 12.4372 0.689377 12.4372 0.697269 11.6873C0.692112 11.199 0.686954 10.7106 0.681641 10.2075C0.68336 9.73749 0.685079 9.26751 0.68685 8.78328C0.688354 8.35376 0.689859 7.92424 0.691408 7.4817C1.03059 5.1997 1.66827 4.54108 3.97578 4.54108Z" fill="#063154"/>
</svg>
