<svg width="21" height="19" viewBox="0 0 21 19" fill="none" xmlns="http://www.w3.org/2000/svg">
<path d="M10.4216 0.369924C10.848 0.366483 11.2743 0.363042 11.7136 0.359497C12.8666 0.536762 12.8666 0.536762 13.681 1.12591C14.4576 2.24095 14.2881 3.22124 14.2002 4.54087C14.4936 4.54087 14.787 4.54087 15.0893 4.54087C15.0893 9.23902 15.0893 13.9372 15.0893 18.7777C12.0086 18.7777 8.92795 18.7777 5.75391 18.7777C5.75391 14.0795 5.75391 9.38139 5.75391 4.54087C6.04731 4.54087 6.3407 4.54087 6.64299 4.54087C6.60174 3.92148 6.60174 3.92148 6.55964 3.28959C6.64299 1.87146 6.64299 1.87146 7.16221 1.12591C8.27755 0.319078 9.05676 0.358909 10.4216 0.369924Z" fill="#063154"/>
<path d="M16.8672 4.54089C19.0899 4.98579 19.0899 4.98579 19.979 5.8756C20.1947 7.70211 20.1437 9.54343 20.1457 11.3812C20.1566 11.8928 20.1675 12.4044 20.1787 12.9314C20.1804 13.4235 20.1821 13.9156 20.1839 14.4226C20.1876 14.8735 20.1912 15.3245 20.195 15.7892C19.922 17.317 19.4233 17.8493 18.2008 18.7777C17.7607 18.7777 17.3206 18.7777 16.8672 18.7777C16.8672 14.0796 16.8672 9.38141 16.8672 4.54089Z" fill="#063154"/>
<path d="M3.97578 4.54089C3.97578 9.23905 3.97578 13.9372 3.97578 18.7777C1.73954 18.2182 1.73954 18.2182 0.863973 16.9981C0.691408 15.8947 0.691408 15.8947 0.68685 14.5946C0.685131 14.1252 0.683412 13.6558 0.681641 13.1721C0.689377 12.4371 0.689377 12.4371 0.697269 11.6871C0.692112 11.1988 0.686954 10.7104 0.681641 10.2073C0.68336 9.73731 0.685079 9.26732 0.68685 8.78309C0.688354 8.35357 0.689859 7.92405 0.691408 7.48152C1.03059 5.19951 1.66827 4.54089 3.97578 4.54089Z" fill="#063154"/>
<path d="M8.42188 2.31641C9.74217 2.31641 11.0625 2.31641 12.4228 2.31641C12.5695 3.05049 12.7162 3.78458 12.8673 4.54091C11.4003 4.54091 9.93332 4.54091 8.42188 4.54091C8.42188 3.80682 8.42188 3.07274 8.42188 2.31641Z" fill="#F5FEFF"/>
<path d="M10.1989 0.536743C11.0791 0.536743 11.9593 0.536743 12.8661 0.536743C12.7194 1.12401 12.5727 1.71128 12.4216 2.31635C11.248 2.31635 10.0744 2.31635 8.86523 2.31635C9.30533 2.02271 9.74543 1.72908 10.1989 1.42654C10.1989 1.13291 10.1989 0.839276 10.1989 0.536743Z" fill="#063154"/>
</svg>
