<svg width="20" height="15" viewBox="0 0 20 15" fill="none" xmlns="http://www.w3.org/2000/svg">
<path d="M16.4042 9.51533V2.49887C16.4042 1.5341 15.6149 0.744751 14.6501 0.744751H2.3713C1.40654 0.744751 0.617188 1.5341 0.617188 2.49887V9.51533C0.617188 10.4801 1.40654 11.2694 2.3713 11.2694H14.6501C15.6149 11.2694 16.4042 10.4801 16.4042 9.51533ZM8.5107 8.63827C7.05479 8.63827 5.87953 7.46301 5.87953 6.0071C5.87953 4.55118 7.05479 3.37592 8.5107 3.37592C9.96662 3.37592 11.1419 4.55118 11.1419 6.0071C11.1419 7.46301 9.96662 8.63827 8.5107 8.63827ZM19.9125 3.37592V13.0236C19.9125 13.9883 19.1231 14.7777 18.1583 14.7777H3.24836V13.0236H18.1583V3.37592H19.9125Z" fill="#063154"/>
</svg>
