<svg width="25" height="24" viewBox="0 0 25 24" fill="none" xmlns="http://www.w3.org/2000/svg">
<path d="M6.0952 18.6751V18.6883M6.0952 5.51927V5.53242M19.2511 5.51927V5.53242M19.2511 14.7284H15.3043V18.6751M23.1978 14.7284V14.7415M15.3043 22.6219H19.2511M19.2511 18.6751H23.1978V22.6219M2.14844 2.8881C2.14844 2.53918 2.28704 2.20456 2.53376 1.95784C2.78048 1.71112 3.11511 1.57251 3.46402 1.57251H8.72637C9.07528 1.57251 9.40991 1.71112 9.65663 1.95784C9.90335 2.20456 10.042 2.53918 10.042 2.8881V8.15044C10.042 8.49936 9.90335 8.83398 9.65663 9.0807C9.40991 9.32742 9.07528 9.46603 8.72637 9.46603H3.46402C3.11511 9.46603 2.78048 9.32742 2.53376 9.0807C2.28704 8.83398 2.14844 8.49936 2.14844 8.15044V2.8881ZM15.3043 2.8881C15.3043 2.53918 15.4429 2.20456 15.6896 1.95784C15.9363 1.71112 16.271 1.57251 16.6199 1.57251H21.8822C22.2311 1.57251 22.5658 1.71112 22.8125 1.95784C23.0592 2.20456 23.1978 2.53918 23.1978 2.8881V8.15044C23.1978 8.49936 23.0592 8.83398 22.8125 9.0807C22.5658 9.32742 22.2311 9.46603 21.8822 9.46603H16.6199C16.271 9.46603 15.9363 9.32742 15.6896 9.0807C15.4429 8.83398 15.3043 8.49936 15.3043 8.15044V2.8881ZM2.14844 16.044C2.14844 15.695 2.28704 15.3604 2.53376 15.1137C2.78048 14.867 3.11511 14.7284 3.46402 14.7284H8.72637C9.07528 14.7284 9.40991 14.867 9.65663 15.1137C9.90335 15.3604 10.042 15.695 10.042 16.044V21.3063C10.042 21.6552 9.90335 21.9898 9.65663 22.2366C9.40991 22.4833 9.07528 22.6219 8.72637 22.6219H3.46402C3.11511 22.6219 2.78048 22.4833 2.53376 22.2366C2.28704 21.9898 2.14844 21.6552 2.14844 21.3063V16.044Z" stroke="white" stroke-width="2.63117" stroke-linecap="round" stroke-linejoin="round"/>
</svg>
